<svg xmlns="http://www.w3.org/2000/svg" xmlns:xlink="http://www.w3.org/1999/xlink" width="500" zoomAndPan="magnify" viewBox="0 0 375 374.999991" height="500" preserveAspectRatio="xMidYMid meet" version="1.0"><defs><g/><clipPath id="eb345dbe16"><path d="M 82 187 L 136 187 L 136 233.199219 L 82 233.199219 Z M 82 187 " clip-rule="nonzero"/></clipPath><clipPath id="4d474ef777"><path d="M 50.101562 141.699219 L 104 141.699219 L 104 188 L 50.101562 188 Z M 50.101562 141.699219 " clip-rule="nonzero"/></clipPath></defs><g clip-path="url(#eb345dbe16)"><path fill="#a6a6a6" d="M 109.253906 187.496094 L 82.8125 233.292969 L 109.507812 233.292969 L 135.949219 187.496094 L 109.253906 187.496094 " fill-opacity="1" fill-rule="nonzero"/></g><path fill="#a6a6a6" d="M 121.578125 162.605469 L 94.882812 162.605469 L 109.253906 187.496094 L 135.949219 187.496094 L 121.578125 162.605469 " fill-opacity="1" fill-rule="nonzero"/><g clip-path="url(#4d474ef777)"><path fill="#a6a6a6" d="M 76.816406 141.699219 L 50.121094 141.699219 L 76.5625 187.496094 L 103.257812 187.496094 L 76.816406 141.699219 " fill-opacity="1" fill-rule="nonzero"/></g><path fill="#a6a6a6" d="M 76.5625 187.496094 L 62.191406 212.386719 L 88.886719 212.386719 L 103.257812 187.496094 L 76.5625 187.496094 " fill-opacity="1" fill-rule="nonzero"/><g fill="#a6a6a6" fill-opacity="1"><g transform="translate(145.214277, 194.908727)"><g><path d="M 22.328125 -8.90625 C 22.328125 -7.3125 21.925781 -5.800781 21.125 -4.375 C 20.320312 -2.957031 19.070312 -1.804688 17.375 -0.921875 C 15.6875 -0.0351562 13.507812 0.40625 10.84375 0.40625 C 9.507812 0.40625 8.335938 0.34375 7.328125 0.21875 C 6.316406 0.101562 5.375 -0.0859375 4.5 -0.359375 C 3.632812 -0.640625 2.734375 -1 1.796875 -1.4375 L 1.796875 -8.5 C 3.390625 -7.695312 4.992188 -7.082031 6.609375 -6.65625 C 8.234375 -6.238281 9.695312 -6.03125 11 -6.03125 C 11.789062 -6.03125 12.4375 -6.125 12.9375 -6.3125 C 13.4375 -6.5 13.804688 -6.753906 14.046875 -7.078125 C 14.285156 -7.410156 14.40625 -7.789062 14.40625 -8.21875 C 14.40625 -8.726562 14.226562 -9.160156 13.875 -9.515625 C 13.519531 -9.867188 12.953125 -10.238281 12.171875 -10.625 C 11.398438 -11.007812 10.382812 -11.488281 9.125 -12.0625 C 8.039062 -12.570312 7.0625 -13.09375 6.1875 -13.625 C 5.3125 -14.164062 4.5625 -14.78125 3.9375 -15.46875 C 3.3125 -16.15625 2.832031 -16.957031 2.5 -17.875 C 2.164062 -18.800781 2 -19.890625 2 -21.140625 C 2 -23.023438 2.460938 -24.601562 3.390625 -25.875 C 4.328125 -27.15625 5.625 -28.113281 7.28125 -28.75 C 8.945312 -29.394531 10.867188 -29.71875 13.046875 -29.71875 C 14.953125 -29.71875 16.671875 -29.503906 18.203125 -29.078125 C 19.734375 -28.648438 21.109375 -28.164062 22.328125 -27.625 L 19.90625 -21.5 C 18.644531 -22.082031 17.40625 -22.539062 16.1875 -22.875 C 14.976562 -23.21875 13.851562 -23.390625 12.8125 -23.390625 C 12.125 -23.390625 11.5625 -23.304688 11.125 -23.140625 C 10.695312 -22.972656 10.378906 -22.75 10.171875 -22.46875 C 9.960938 -22.1875 9.859375 -21.863281 9.859375 -21.5 C 9.859375 -21.050781 10.035156 -20.644531 10.390625 -20.28125 C 10.742188 -19.914062 11.335938 -19.523438 12.171875 -19.109375 C 13.003906 -18.691406 14.144531 -18.148438 15.59375 -17.484375 C 17.019531 -16.835938 18.234375 -16.144531 19.234375 -15.40625 C 20.242188 -14.664062 21.007812 -13.773438 21.53125 -12.734375 C 22.0625 -11.703125 22.328125 -10.425781 22.328125 -8.90625 Z M 22.328125 -8.90625 "/></g></g></g><g fill="#a6a6a6" fill-opacity="1"><g transform="translate(168.899907, 194.908727)"><g><path d="M 3.171875 0 L 3.171875 -29.296875 L 11.125 -29.296875 L 11.125 0 Z M 3.171875 0 "/></g></g></g><g fill="#a6a6a6" fill-opacity="1"><g transform="translate(183.187431, 194.908727)"><g/></g></g><g fill="#a6a6a6" fill-opacity="1"><g transform="translate(193.847968, 194.908727)"><g><path d="M 16.09375 0 L 8.171875 0 L 8.171875 -22.828125 L 1.015625 -22.828125 L 1.015625 -29.296875 L 23.234375 -29.296875 L 23.234375 -22.828125 L 16.09375 -22.828125 Z M 16.09375 0 "/></g></g></g><g fill="#a6a6a6" fill-opacity="1"><g transform="translate(218.094678, 194.908727)"><g><path d="M 12.765625 -29.296875 C 15.421875 -29.296875 17.628906 -28.972656 19.390625 -28.328125 C 21.160156 -27.679688 22.488281 -26.71875 23.375 -25.4375 C 24.269531 -24.15625 24.71875 -22.554688 24.71875 -20.640625 C 24.71875 -19.453125 24.515625 -18.367188 24.109375 -17.390625 C 23.710938 -16.421875 23.140625 -15.550781 22.390625 -14.78125 C 21.648438 -14.007812 20.765625 -13.335938 19.734375 -12.765625 L 28.28125 0 L 19.296875 0 L 13.09375 -10.65625 L 11.078125 -10.65625 L 11.078125 0 L 3.171875 0 L 3.171875 -29.296875 Z M 12.640625 -23.3125 L 11.078125 -23.3125 L 11.078125 -16.609375 L 12.5625 -16.609375 C 13.78125 -16.609375 14.773438 -16.875 15.546875 -17.40625 C 16.328125 -17.945312 16.71875 -18.90625 16.71875 -20.28125 C 16.71875 -21.226562 16.394531 -21.96875 15.75 -22.5 C 15.113281 -23.039062 14.078125 -23.3125 12.640625 -23.3125 Z M 12.640625 -23.3125 "/></g></g></g><g fill="#a6a6a6" fill-opacity="1"><g transform="translate(245.868183, 194.908727)"><g><path d="M 21.140625 0 L 19.703125 -5.484375 L 10.1875 -5.484375 L 8.703125 0 L 0 0 L 9.5625 -29.421875 L 20.125 -29.421875 L 29.796875 0 Z M 18.0625 -11.984375 L 16.796875 -16.796875 C 16.660156 -17.316406 16.460938 -18.0625 16.203125 -19.03125 C 15.953125 -20 15.703125 -21 15.453125 -22.03125 C 15.210938 -23.070312 15.023438 -23.925781 14.890625 -24.59375 C 14.773438 -23.925781 14.601562 -23.097656 14.375 -22.109375 C 14.15625 -21.128906 13.925781 -20.15625 13.6875 -19.1875 C 13.457031 -18.226562 13.257812 -17.429688 13.09375 -16.796875 L 11.828125 -11.984375 Z M 18.0625 -11.984375 "/></g></g></g><g fill="#a6a6a6" fill-opacity="1"><g transform="translate(275.665587, 194.908727)"><g><path d="M 28.046875 -15.265625 C 28.046875 -11.859375 27.410156 -9.023438 26.140625 -6.765625 C 24.867188 -4.515625 23.078125 -2.820312 20.765625 -1.6875 C 18.460938 -0.5625 15.753906 0 12.640625 0 L 3.171875 0 L 3.171875 -29.296875 L 13.3125 -29.296875 C 16.457031 -29.296875 19.125 -28.753906 21.3125 -27.671875 C 23.507812 -26.597656 25.179688 -25.015625 26.328125 -22.921875 C 27.472656 -20.835938 28.046875 -18.285156 28.046875 -15.265625 Z M 19.828125 -14.984375 C 19.828125 -16.765625 19.585938 -18.238281 19.109375 -19.40625 C 18.640625 -20.582031 17.925781 -21.457031 16.96875 -22.03125 C 16.019531 -22.613281 14.828125 -22.90625 13.390625 -22.90625 L 11.078125 -22.90625 L 11.078125 -6.5 L 12.84375 -6.5 C 15.25 -6.5 17.015625 -7.195312 18.140625 -8.59375 C 19.265625 -9.988281 19.828125 -12.117188 19.828125 -14.984375 Z M 19.828125 -14.984375 "/></g></g></g><g fill="#a6a6a6" fill-opacity="1"><g transform="translate(305.783608, 194.908727)"><g><path d="M 20.5625 0 L 3.171875 0 L 3.171875 -29.296875 L 20.5625 -29.296875 L 20.5625 -22.953125 L 11.078125 -22.953125 L 11.078125 -18.34375 L 19.859375 -18.34375 L 19.859375 -11.984375 L 11.078125 -11.984375 L 11.078125 -6.453125 L 20.5625 -6.453125 Z M 20.5625 0 "/></g></g></g><g fill="#a6a6a6" fill-opacity="1"><g transform="translate(145.214277, 214.845005)"><g><path d="M 1.796875 0 L 1.796875 -13.078125 L 3.3125 -13.078125 L 3.3125 0 Z M 1.796875 0 "/></g></g></g><g fill="#a6a6a6" fill-opacity="1"><g transform="translate(153.665526, 214.845005)"><g><path d="M 7.578125 0 L 3.140625 -11.59375 L 3.078125 -11.59375 C 3.160156 -10.675781 3.203125 -9.582031 3.203125 -8.3125 L 3.203125 0 L 1.796875 0 L 1.796875 -13.078125 L 4.09375 -13.078125 L 8.21875 -2.296875 L 8.296875 -2.296875 L 12.46875 -13.078125 L 14.75 -13.078125 L 14.75 0 L 13.21875 0 L 13.21875 -8.421875 C 13.21875 -9.390625 13.257812 -10.441406 13.34375 -11.578125 L 13.28125 -11.578125 L 8.8125 0 Z M 7.578125 0 "/></g></g></g><g fill="#a6a6a6" fill-opacity="1"><g transform="translate(173.529245, 214.845005)"><g><path d="M 10.09375 -9.265625 C 10.09375 -7.941406 9.640625 -6.921875 8.734375 -6.203125 C 7.828125 -5.492188 6.535156 -5.140625 4.859375 -5.140625 L 3.3125 -5.140625 L 3.3125 0 L 1.796875 0 L 1.796875 -13.078125 L 5.1875 -13.078125 C 8.457031 -13.078125 10.09375 -11.804688 10.09375 -9.265625 Z M 3.3125 -6.453125 L 4.6875 -6.453125 C 6.03125 -6.453125 7.003906 -6.664062 7.609375 -7.09375 C 8.210938 -7.53125 8.515625 -8.226562 8.515625 -9.1875 C 8.515625 -10.050781 8.226562 -10.695312 7.65625 -11.125 C 7.09375 -11.550781 6.210938 -11.765625 5.015625 -11.765625 L 3.3125 -11.765625 Z M 3.3125 -6.453125 "/></g></g></g><g fill="#a6a6a6" fill-opacity="1"><g transform="translate(187.892116, 214.845005)"><g><path d="M 13.140625 -6.546875 C 13.140625 -4.460938 12.609375 -2.820312 11.546875 -1.625 C 10.492188 -0.425781 9.023438 0.171875 7.140625 0.171875 C 5.210938 0.171875 3.726562 -0.414062 2.6875 -1.59375 C 1.644531 -2.769531 1.125 -4.429688 1.125 -6.578125 C 1.125 -8.703125 1.644531 -10.347656 2.6875 -11.515625 C 3.738281 -12.691406 5.226562 -13.28125 7.15625 -13.28125 C 9.039062 -13.28125 10.507812 -12.679688 11.5625 -11.484375 C 12.613281 -10.296875 13.140625 -8.648438 13.140625 -6.546875 Z M 2.734375 -6.546875 C 2.734375 -4.785156 3.109375 -3.445312 3.859375 -2.53125 C 4.609375 -1.613281 5.703125 -1.15625 7.140625 -1.15625 C 8.585938 -1.15625 9.679688 -1.609375 10.421875 -2.515625 C 11.160156 -3.429688 11.53125 -4.773438 11.53125 -6.546875 C 11.53125 -8.304688 11.160156 -9.640625 10.421875 -10.546875 C 9.691406 -11.460938 8.601562 -11.921875 7.15625 -11.921875 C 5.707031 -11.921875 4.609375 -11.460938 3.859375 -10.546875 C 3.109375 -9.628906 2.734375 -8.296875 2.734375 -6.546875 Z M 2.734375 -6.546875 "/></g></g></g><g fill="#a6a6a6" fill-opacity="1"><g transform="translate(205.48763, 214.845005)"><g><path d="M 3.3125 -5.4375 L 3.3125 0 L 1.796875 0 L 1.796875 -13.078125 L 5.390625 -13.078125 C 6.984375 -13.078125 8.164062 -12.769531 8.9375 -12.15625 C 9.707031 -11.539062 10.09375 -10.613281 10.09375 -9.375 C 10.09375 -7.644531 9.210938 -6.476562 7.453125 -5.875 L 11 0 L 9.203125 0 L 6.046875 -5.4375 Z M 3.3125 -6.734375 L 5.40625 -6.734375 C 6.476562 -6.734375 7.265625 -6.945312 7.765625 -7.375 C 8.265625 -7.800781 8.515625 -8.441406 8.515625 -9.296875 C 8.515625 -10.160156 8.257812 -10.78125 7.75 -11.15625 C 7.238281 -11.539062 6.421875 -11.734375 5.296875 -11.734375 L 3.3125 -11.734375 Z M 3.3125 -6.734375 "/></g></g></g><g fill="#a6a6a6" fill-opacity="1"><g transform="translate(220.145192, 214.845005)"><g><path d="M 5.828125 0 L 4.296875 0 L 4.296875 -11.71875 L 0.15625 -11.71875 L 0.15625 -13.078125 L 9.96875 -13.078125 L 9.96875 -11.71875 L 5.828125 -11.71875 Z M 5.828125 0 "/></g></g></g><g fill="#a6a6a6" fill-opacity="1"><g transform="translate(233.615066, 214.845005)"><g/></g></g><g fill="#a6a6a6" fill-opacity="1"><g transform="translate(241.718043, 214.845005)"><g><path d="M 9.078125 0 L 1.796875 0 L 1.796875 -13.078125 L 9.078125 -13.078125 L 9.078125 -11.71875 L 3.3125 -11.71875 L 3.3125 -7.515625 L 8.734375 -7.515625 L 8.734375 -6.171875 L 3.3125 -6.171875 L 3.3125 -1.359375 L 9.078125 -1.359375 Z M 9.078125 0 "/></g></g></g><g fill="#a6a6a6" fill-opacity="1"><g transform="translate(255.241497, 214.845005)"><g><path d="M 10.5 0 L 8.765625 0 L 5.25 -5.75 L 1.6875 0 L 0.078125 0 L 4.421875 -6.828125 L 0.359375 -13.078125 L 2.046875 -13.078125 L 5.296875 -7.890625 L 8.5625 -13.078125 L 10.1875 -13.078125 L 6.140625 -6.890625 Z M 10.5 0 "/></g></g></g><g fill="#a6a6a6" fill-opacity="1"><g transform="translate(269.148939, 214.845005)"><g><path d="M 10.09375 -9.265625 C 10.09375 -7.941406 9.640625 -6.921875 8.734375 -6.203125 C 7.828125 -5.492188 6.535156 -5.140625 4.859375 -5.140625 L 3.3125 -5.140625 L 3.3125 0 L 1.796875 0 L 1.796875 -13.078125 L 5.1875 -13.078125 C 8.457031 -13.078125 10.09375 -11.804688 10.09375 -9.265625 Z M 3.3125 -6.453125 L 4.6875 -6.453125 C 6.03125 -6.453125 7.003906 -6.664062 7.609375 -7.09375 C 8.210938 -7.53125 8.515625 -8.226562 8.515625 -9.1875 C 8.515625 -10.050781 8.226562 -10.695312 7.65625 -11.125 C 7.09375 -11.550781 6.210938 -11.765625 5.015625 -11.765625 L 3.3125 -11.765625 Z M 3.3125 -6.453125 "/></g></g></g><g fill="#a6a6a6" fill-opacity="1"><g transform="translate(283.511808, 214.845005)"><g><path d="M 13.140625 -6.546875 C 13.140625 -4.460938 12.609375 -2.820312 11.546875 -1.625 C 10.492188 -0.425781 9.023438 0.171875 7.140625 0.171875 C 5.210938 0.171875 3.726562 -0.414062 2.6875 -1.59375 C 1.644531 -2.769531 1.125 -4.429688 1.125 -6.578125 C 1.125 -8.703125 1.644531 -10.347656 2.6875 -11.515625 C 3.738281 -12.691406 5.226562 -13.28125 7.15625 -13.28125 C 9.039062 -13.28125 10.507812 -12.679688 11.5625 -11.484375 C 12.613281 -10.296875 13.140625 -8.648438 13.140625 -6.546875 Z M 2.734375 -6.546875 C 2.734375 -4.785156 3.109375 -3.445312 3.859375 -2.53125 C 4.609375 -1.613281 5.703125 -1.15625 7.140625 -1.15625 C 8.585938 -1.15625 9.679688 -1.609375 10.421875 -2.515625 C 11.160156 -3.429688 11.53125 -4.773438 11.53125 -6.546875 C 11.53125 -8.304688 11.160156 -9.640625 10.421875 -10.546875 C 9.691406 -11.460938 8.601562 -11.921875 7.15625 -11.921875 C 5.707031 -11.921875 4.609375 -11.460938 3.859375 -10.546875 C 3.109375 -9.628906 2.734375 -8.296875 2.734375 -6.546875 Z M 2.734375 -6.546875 "/></g></g></g><g fill="#a6a6a6" fill-opacity="1"><g transform="translate(301.107317, 214.845005)"><g><path d="M 3.3125 -5.4375 L 3.3125 0 L 1.796875 0 L 1.796875 -13.078125 L 5.390625 -13.078125 C 6.984375 -13.078125 8.164062 -12.769531 8.9375 -12.15625 C 9.707031 -11.539062 10.09375 -10.613281 10.09375 -9.375 C 10.09375 -7.644531 9.210938 -6.476562 7.453125 -5.875 L 11 0 L 9.203125 0 L 6.046875 -5.4375 Z M 3.3125 -6.734375 L 5.40625 -6.734375 C 6.476562 -6.734375 7.265625 -6.945312 7.765625 -7.375 C 8.265625 -7.800781 8.515625 -8.441406 8.515625 -9.296875 C 8.515625 -10.160156 8.257812 -10.78125 7.75 -11.15625 C 7.238281 -11.539062 6.421875 -11.734375 5.296875 -11.734375 L 3.3125 -11.734375 Z M 3.3125 -6.734375 "/></g></g></g><g fill="#a6a6a6" fill-opacity="1"><g transform="translate(315.764874, 214.845005)"><g><path d="M 5.828125 0 L 4.296875 0 L 4.296875 -11.71875 L 0.15625 -11.71875 L 0.15625 -13.078125 L 9.96875 -13.078125 L 9.96875 -11.71875 L 5.828125 -11.71875 Z M 5.828125 0 "/></g></g></g></svg>